<?xml version="1.0" encoding="UTF-8"?>
<!DOCTYPE svg PUBLIC "-//W3C//DTD SVG 1.1//EN" "http://www.w3.org/Graphics/SVG/1.1/DTD/svg11.dtd">
<svg xmlns="http://www.w3.org/2000/svg" version="1.1" width="512px" height="512px" style="shape-rendering:geometricPrecision; text-rendering:geometricPrecision; image-rendering:optimizeQuality; fill-rule:evenodd; clip-rule:evenodd" xmlns:xlink="http://www.w3.org/1999/xlink">
<g><path style="opacity:0.02" fill="#616161" d="M -0.5,-0.5 C 0.166667,-0.5 0.833333,-0.5 1.5,-0.5C 1.16667,0.5 0.5,1.16667 -0.5,1.5C -0.5,0.833333 -0.5,0.166667 -0.5,-0.5 Z"/></g>
<g><path style="opacity:0.024" fill="#5b5b5b" d="M 16.5,-0.5 C 18.1667,-0.5 19.8333,-0.5 21.5,-0.5C 14.5,7.16667 7.16667,14.5 -0.5,21.5C -0.5,19.8333 -0.5,18.1667 -0.5,16.5C 5.5,11.1667 11.1667,5.5 16.5,-0.5 Z"/></g>
<g><path style="opacity:0.024" fill="#5b5b5b" d="M 36.5,-0.5 C 38.1667,-0.5 39.8333,-0.5 41.5,-0.5C 27.8333,13.8333 13.8333,27.8333 -0.5,41.5C -0.5,39.8333 -0.5,38.1667 -0.5,36.5C 12.1667,24.5 24.5,12.1667 36.5,-0.5 Z"/></g>
<g><path style="opacity:0.024" fill="#5b5b5b" d="M 56.5,-0.5 C 58.1667,-0.5 59.8333,-0.5 61.5,-0.5C 41.1667,20.5 20.5,41.1667 -0.5,61.5C -0.5,59.8333 -0.5,58.1667 -0.5,56.5C 18.8333,37.8333 37.8333,18.8333 56.5,-0.5 Z"/></g>
<g><path style="opacity:0.024" fill="#5b5b5b" d="M 76.5,-0.5 C 78.1667,-0.5 79.8333,-0.5 81.5,-0.5C 54.5,27.1667 27.1667,54.5 -0.5,81.5C -0.5,79.8333 -0.5,78.1667 -0.5,76.5C 25.5,51.1667 51.1667,25.5 76.5,-0.5 Z"/></g>
<g><path style="opacity:0.024" fill="#5b5b5b" d="M 96.5,-0.5 C 98.1667,-0.5 99.8333,-0.5 101.5,-0.5C 67.8333,33.8333 33.8333,67.8333 -0.5,101.5C -0.5,99.8333 -0.5,98.1667 -0.5,96.5C 32.1667,64.5 64.5,32.1667 96.5,-0.5 Z"/></g>
<g><path style="opacity:0.024" fill="#5b5b5b" d="M 116.5,-0.5 C 118.167,-0.5 119.833,-0.5 121.5,-0.5C 81.1667,40.5 40.5,81.1667 -0.5,121.5C -0.5,119.833 -0.5,118.167 -0.5,116.5C 38.8333,77.8333 77.8333,38.8333 116.5,-0.5 Z"/></g>
<g><path style="opacity:0.024" fill="#5b5b5b" d="M 136.5,-0.5 C 138.167,-0.5 139.833,-0.5 141.5,-0.5C 94.5,47.1667 47.1667,94.5 -0.5,141.5C -0.5,139.833 -0.5,138.167 -0.5,136.5C 45.5,91.1667 91.1667,45.5 136.5,-0.5 Z"/></g>
<g><path style="opacity:0.024" fill="#5a5a5a" d="M 156.5,-0.5 C 158.167,-0.5 159.833,-0.5 161.5,-0.5C 151.833,9.5 142.167,19.5 132.5,29.5C 131.833,29.5 131.5,29.8333 131.5,30.5C 130.833,30.5 130.5,30.8333 130.5,31.5C 126.149,34.1935 121.816,36.8602 117.5,39.5C 130.5,26.1667 143.5,12.8333 156.5,-0.5 Z"/></g>
<g><path style="opacity:0.024" fill="#5a5a5a" d="M 176.5,-0.5 C 178.167,-0.5 179.833,-0.5 181.5,-0.5C 177.167,4.16667 172.833,8.83333 168.5,13.5C 167.833,13.5 167.5,13.8333 167.5,14.5C 165.046,16.0598 162.38,17.0598 159.5,17.5C 165.167,11.5 170.833,5.5 176.5,-0.5 Z"/></g>
<g><path style="opacity:0.024" fill="#595959" d="M 196.5,-0.5 C 198.167,-0.5 199.833,-0.5 201.5,-0.5C 199.833,1.5 198.167,3.5 196.5,5.5C 194.485,6.92381 192.152,7.59047 189.5,7.5C 191.833,4.83333 194.167,2.16667 196.5,-0.5 Z"/></g>
<g><path style="opacity:0.024" fill="#545454" d="M 216.5,-0.5 C 218.167,-0.5 219.833,-0.5 221.5,-0.5C 221.167,0.166667 220.833,0.833333 220.5,1.5C 218.565,2.14952 216.565,2.48285 214.5,2.5C 215.167,1.5 215.833,0.5 216.5,-0.5 Z"/></g>
<g><path style="opacity:1" fill="#3475c1" d="M 232.5,-0.5 C 248.833,-0.5 265.167,-0.5 281.5,-0.5C 284.946,0.687399 288.613,1.35407 292.5,1.5C 294.607,2.46822 296.941,2.80155 299.5,2.5C 302.802,3.29373 306.135,3.9604 309.5,4.5C 311.374,5.28518 313.374,5.95184 315.5,6.5C 319.678,6.87786 323.678,7.87786 327.5,9.5C 328.833,9.83333 330.167,10.1667 331.5,10.5C 334.833,11.5 338.167,12.5 341.5,13.5C 342.78,14.9313 344.447,15.5979 346.5,15.5C 349.833,16.8333 353.167,18.1667 356.5,19.5C 357.671,20.3446 359.005,21.0113 360.5,21.5C 363.622,22.5612 366.622,23.8946 369.5,25.5C 370.965,26.7368 372.632,27.7368 374.5,28.5C 377.395,29.3994 380.062,30.7328 382.5,32.5C 383.514,33.6737 384.847,34.3404 386.5,34.5C 389.477,36.4667 392.477,38.4667 395.5,40.5C 396.436,41.9744 397.77,42.9744 399.5,43.5C 402.167,45.1667 404.833,46.8333 407.5,48.5C 407.973,49.9063 408.973,50.573 410.5,50.5C 413.167,52.8333 415.833,55.1667 418.5,57.5C 419.167,58.8333 420.167,59.8333 421.5,60.5C 424.447,61.7805 426.781,63.7805 428.5,66.5C 429.262,68.2624 430.596,69.2624 432.5,69.5C 434.5,72.1667 436.833,74.5 439.5,76.5C 439.5,78.5 440.5,79.5 442.5,79.5C 444.862,82.192 447.196,84.8587 449.5,87.5C 449.833,88.5 450.5,89.1667 451.5,89.5C 453.5,92.1667 455.5,94.8333 457.5,97.5C 458.512,98.8717 459.512,100.205 460.5,101.5C 462.853,103.86 464.853,106.527 466.5,109.5C 466.932,110.71 467.599,111.71 468.5,112.5C 470.5,115.5 472.5,118.5 474.5,121.5C 474.66,123.153 475.326,124.486 476.5,125.5C 478.417,128.331 480.083,131.331 481.5,134.5C 481.932,135.71 482.599,136.71 483.5,137.5C 485.167,140.833 486.833,144.167 488.5,147.5C 488.796,149.403 489.463,151.07 490.5,152.5C 491.833,155.5 493.167,158.5 494.5,161.5C 494.402,163.553 495.069,165.22 496.5,166.5C 497.5,169.833 498.5,173.167 499.5,176.5C 499.875,178.698 500.542,180.698 501.5,182.5C 502.578,185.402 503.244,188.402 503.5,191.5C 504.048,193.626 504.715,195.626 505.5,197.5C 506.422,201.112 507.089,204.779 507.5,208.5C 507.232,210.099 507.566,211.432 508.5,212.5C 509.086,216.854 509.752,221.188 510.5,225.5C 509.167,227.167 509.167,228.833 510.5,230.5C 510.328,231.492 510.662,232.158 511.5,232.5C 511.5,247.833 511.5,263.167 511.5,278.5C 510.532,280.607 510.198,282.941 510.5,285.5C 509.659,287.379 509.325,289.379 509.5,291.5C 508.716,297.539 507.716,303.539 506.5,309.5C 505.681,311.772 505.015,314.106 504.5,316.5C 502.833,323.167 501.167,329.833 499.5,336.5C 498.833,336.5 498.5,336.833 498.5,337.5C 497.061,339.588 496.394,341.921 496.5,344.5C 492.836,353.162 489.169,361.829 485.5,370.5C 484.833,370.5 484.5,370.833 484.5,371.5C 482.17,375.492 479.837,379.492 477.5,383.5C 454.188,423.479 422.521,455.145 382.5,478.5C 378.665,480.25 374.999,482.25 371.5,484.5C 370.833,484.5 370.5,484.833 370.5,485.5C 361.829,489.169 353.162,492.836 344.5,496.5C 342.035,496.767 339.701,497.434 337.5,498.5C 336.833,498.5 336.5,498.833 336.5,499.5C 329.833,501.167 323.167,502.833 316.5,504.5C 314.106,505.015 311.772,505.681 309.5,506.5C 303.539,507.716 297.539,508.716 291.5,509.5C 289.379,509.325 287.379,509.659 285.5,510.5C 282.941,510.198 280.607,510.532 278.5,511.5C 263.167,511.5 247.833,511.5 232.5,511.5C 232.158,510.662 231.492,510.328 230.5,510.5C 228.833,509.167 227.167,509.167 225.5,510.5C 221.188,509.752 216.854,509.086 212.5,508.5C 211.432,507.566 210.099,507.232 208.5,507.5C 204.779,507.089 201.112,506.422 197.5,505.5C 195.786,504.262 193.786,503.595 191.5,503.5C 188.123,503.041 184.789,502.374 181.5,501.5C 180.07,500.463 178.403,499.796 176.5,499.5C 173.167,498.5 169.833,497.5 166.5,496.5C 165.22,495.069 163.553,494.402 161.5,494.5C 158.5,493.167 155.5,491.833 152.5,490.5C 151.22,489.069 149.553,488.402 147.5,488.5C 144.167,486.833 140.833,485.167 137.5,483.5C 136.71,482.599 135.71,481.932 134.5,481.5C 131.331,480.083 128.331,478.417 125.5,476.5C 124.486,475.326 123.153,474.66 121.5,474.5C 118.5,472.5 115.5,470.5 112.5,468.5C 112.027,467.094 111.027,466.427 109.5,466.5C 106.5,464.5 103.5,462.5 100.5,460.5C 99.8333,459.167 98.8333,458.167 97.5,457.5C 94.9401,455.727 92.6068,453.727 90.5,451.5C 90.0269,450.094 89.0269,449.427 87.5,449.5C 84.8587,447.196 82.192,444.862 79.5,442.5C 79.1436,440.81 78.1436,439.81 76.5,439.5C 74.5,436.833 72.1667,434.5 69.5,432.5C 69.5,430.5 68.5,429.5 66.5,429.5C 64.1377,426.808 61.8044,424.141 59.5,421.5C 59.573,419.973 58.9063,418.973 57.5,418.5C 55.1667,415.833 52.8333,413.167 50.5,410.5C 50.573,408.973 49.9063,407.973 48.5,407.5C 46.8333,404.833 45.1667,402.167 43.5,399.5C 42.4884,398.128 41.4884,396.795 40.5,395.5C 38.4667,392.477 36.4667,389.477 34.5,386.5C 34.7709,384.62 34.1042,383.287 32.5,382.5C 30.7328,380.062 29.3994,377.395 28.5,374.5C 27.9744,372.77 26.9744,371.436 25.5,370.5C 24.1667,367.167 22.8333,363.833 21.5,360.5C 21.3404,358.847 20.6737,357.514 19.5,356.5C 18.1667,353.167 16.8333,349.833 15.5,346.5C 15.5979,344.447 14.9313,342.78 13.5,341.5C 12.5,338.167 11.5,334.833 10.5,331.5C 10.5674,330.041 10.2341,328.708 9.5,327.5C 7.87786,323.678 6.87786,319.678 6.5,315.5C 5.97588,313.694 5.30921,312.028 4.5,310.5C 4.0889,306.779 3.42223,303.112 2.5,299.5C 2.80155,296.941 2.46822,294.607 1.5,292.5C 1.35407,288.613 0.687399,284.946 -0.5,281.5C -0.5,265.167 -0.5,248.833 -0.5,232.5C 0.293656,228.642 0.960323,224.642 1.5,220.5C 1.83333,218.5 2.16667,216.5 2.5,214.5C 3.24235,208.455 4.24235,202.455 5.5,196.5C 6.61185,194.401 7.27852,192.067 7.5,189.5C 9.50027,182.499 11.5003,175.499 13.5,168.5C 14.1667,168.5 14.5,168.167 14.5,167.5C 16.0598,165.046 17.0598,162.38 17.5,159.5C 21.2229,150.387 25.2229,141.387 29.5,132.5C 30.1667,132.5 30.5,132.167 30.5,131.5C 31.1667,131.5 31.5,131.167 31.5,130.5C 34.3497,126.801 36.683,122.801 38.5,118.5C 59.1667,86.5 85.5,60.1667 117.5,39.5C 121.816,36.8602 126.149,34.1935 130.5,31.5C 131.167,31.5 131.5,31.1667 131.5,30.5C 132.167,30.5 132.5,30.1667 132.5,29.5C 141.387,25.2229 150.387,21.2229 159.5,17.5C 162.38,17.0598 165.046,16.0598 167.5,14.5C 168.167,14.5 168.5,14.1667 168.5,13.5C 175.499,11.5003 182.499,9.50027 189.5,7.5C 192.152,7.59047 194.485,6.92381 196.5,5.5C 202.461,4.28426 208.461,3.28426 214.5,2.5C 216.565,2.48285 218.565,2.14952 220.5,1.5C 224.664,1.04433 228.664,0.377659 232.5,-0.5 Z M 118.5,162.5 C 119.5,162.5 120.5,162.5 121.5,162.5C 125.514,162.334 129.514,162.501 133.5,163C 124.965,171.702 116.298,180.202 107.5,188.5C 107.5,183.5 107.5,178.5 107.5,173.5C 111.5,170.167 115.167,166.5 118.5,162.5 Z M 153.5,162.5 C 138.5,178.167 123.167,193.5 107.5,208.5C 107.5,203.5 107.5,198.5 107.5,193.5C 117.965,183.535 128.298,173.369 138.5,163C 143.489,162.501 148.489,162.334 153.5,162.5 Z M 158.5,162.5 C 163.5,162.5 168.5,162.5 173.5,162.5C 164.167,172.167 154.833,181.833 145.5,191.5C 142.5,189.5 139.5,187.5 136.5,185.5C 143.833,177.833 151.167,170.167 158.5,162.5 Z M 178.5,162.5 C 183.5,162.5 188.5,162.5 193.5,162.5C 181.5,174.833 169.5,187.167 157.5,199.5C 154.291,197.735 151.291,195.735 148.5,193.5C 158.5,183.167 168.5,172.833 178.5,162.5 Z M 198.5,162.5 C 203.5,162.5 208.5,162.5 213.5,162.5C 198.833,177.833 183.833,192.833 168.5,207.5C 165.833,205.833 163.167,204.167 160.5,202.5C 160.369,201.761 160.536,201.094 161,200.5C 173.702,187.965 186.202,175.298 198.5,162.5 Z M 218.5,162.5 C 223.5,162.5 228.5,162.5 233.5,162.5C 216.167,180.5 198.5,198.167 180.5,215.5C 177.833,213.833 175.167,212.167 172.5,210.5C 172.369,209.761 172.536,209.094 173,208.5C 188.368,193.299 203.535,177.965 218.5,162.5 Z M 238.5,162.5 C 243.5,162.5 248.5,162.5 253.5,162.5C 233.45,183.551 212.783,203.884 191.5,223.5C 189.178,221.336 186.511,219.669 183.5,218.5C 201.833,199.833 220.167,181.167 238.5,162.5 Z M 258.5,162.5 C 263.5,162.5 268.5,162.5 273.5,162.5C 250.783,186.217 227.45,209.217 203.5,231.5C 200.833,229.833 198.167,228.167 195.5,226.5C 216.5,205.167 237.5,183.833 258.5,162.5 Z M 278.5,162.5 C 283.5,162.5 288.5,162.5 293.5,162.5C 267.833,188.5 242.167,214.5 216.5,240.5C 213.5,238.5 210.5,236.5 207.5,234.5C 231.167,210.5 254.833,186.5 278.5,162.5 Z M 298.5,162.5 C 303.5,162.5 308.5,162.5 313.5,162.5C 285.167,191.5 256.5,220.167 227.5,248.5C 225.14,246.147 222.473,244.147 219.5,242.5C 245.833,215.833 272.167,189.167 298.5,162.5 Z M 318.5,162.5 C 323.5,162.5 328.5,162.5 333.5,162.5C 302.5,194.167 271.167,225.5 239.5,256.5C 236.833,254.5 234.167,252.5 231.5,250.5C 260.5,221.167 289.5,191.833 318.5,162.5 Z M 338.5,162.5 C 343.5,162.5 348.5,162.5 353.5,162.5C 319.833,196.833 285.833,230.833 251.5,264.5C 248.833,262.833 246.167,261.167 243.5,259.5C 243.369,258.761 243.536,258.094 244,257.5C 275.701,225.965 307.201,194.299 338.5,162.5 Z M 358.5,162.5 C 363.5,162.5 368.5,162.5 373.5,162.5C 345.833,190.5 318.167,218.5 290.5,246.5C 280.084,254.41 269.251,261.743 258,268.5C 257.098,268.257 256.265,267.923 255.5,267.5C 255.369,266.761 255.536,266.094 256,265.5C 290.368,231.299 324.535,196.965 358.5,162.5 Z M 378.5,162.5 C 382.167,162.5 385.833,162.5 389.5,162.5C 390.833,162.5 392.167,162.5 393.5,162.5C 381.167,175.167 368.833,187.833 356.5,200.5C 340.819,212.004 324.819,223.004 308.5,233.5C 331.833,209.833 355.167,186.167 378.5,162.5 Z M 396.5,164.5 C 399.647,166.313 401.647,168.98 402.5,172.5C 379.884,196.783 356.551,220.45 332.5,243.5C 332.156,239.034 333.323,235.034 336,231.5C 350.006,216.661 364.173,201.994 378.5,187.5C 380.085,186.998 380.585,185.998 380,184.5C 379.005,185.066 378.172,185.733 377.5,186.5C 376.609,187.11 375.609,187.443 374.5,187.5C 381.833,179.833 389.167,172.167 396.5,164.5 Z M 403.5,178.5 C 403.5,183.5 403.5,188.5 403.5,193.5C 382.167,214.5 360.833,235.5 339.5,256.5C 338.099,253.366 336.432,250.366 334.5,247.5C 357.167,224.167 380.167,201.167 403.5,178.5 Z M 135.5,186.5 C 137.5,189.167 139.833,191.5 142.5,193.5C 131.167,205.5 119.5,217.167 107.5,228.5C 107.5,223.5 107.5,218.5 107.5,213.5C 116.833,204.5 126.167,195.5 135.5,186.5 Z M 145.5,196.5 C 147.833,199.167 150.167,201.833 152.5,204.5C 137.5,219.167 122.5,233.833 107.5,248.5C 107.5,243.5 107.5,238.5 107.5,233.5C 120.167,221.167 132.833,208.833 145.5,196.5 Z M 403.5,198.5 C 403.5,203.5 403.5,208.5 403.5,213.5C 384.833,231.5 366.5,249.833 348.5,268.5C 346.265,265.709 344.265,262.709 342.5,259.5C 362.5,238.833 382.833,218.5 403.5,198.5 Z M 154.5,206.5 C 156.605,209.027 158.939,211.36 161.5,213.5C 144.218,232.449 126.218,250.783 107.5,268.5C 107.5,263.5 107.5,258.5 107.5,253.5C 123.5,238.167 139.167,222.5 154.5,206.5 Z M 165.5,217.5 C 167.167,219.833 169.167,221.833 171.5,223.5C 150.884,245.783 129.551,267.45 107.5,288.5C 107.5,283.5 107.5,278.5 107.5,273.5C 126.299,255.202 144.965,236.702 163.5,218C 164.094,217.536 164.761,217.369 165.5,217.5 Z M 403.5,218.5 C 403.5,223.5 403.5,228.5 403.5,233.5C 387.5,249.167 371.5,264.833 355.5,280.5C 354.099,277.366 352.432,274.366 350.5,271.5C 367.833,253.5 385.5,235.833 403.5,218.5 Z M 174.5,227.5 C 177.219,229.219 179.219,231.553 180.5,234.5C 156.884,259.783 132.551,284.45 107.5,308.5C 107.5,303.5 107.5,298.5 107.5,293.5C 129.833,271.5 152.167,249.5 174.5,227.5 Z M 403.5,238.5 C 403.5,243.5 403.5,248.5 403.5,253.5C 390.167,266.5 376.833,279.5 363.5,292.5C 362.099,289.366 360.432,286.366 358.5,283.5C 373.167,268.167 388.167,253.167 403.5,238.5 Z M 181.5,240.5 C 181.201,244.105 180.035,247.439 178,250.5C 171.823,259.529 165.657,268.529 159.5,277.5C 142.167,294.5 124.833,311.5 107.5,328.5C 107.5,323.5 107.5,318.5 107.5,313.5C 132.167,289.167 156.833,264.833 181.5,240.5 Z M 215.5,260.5 C 186.5,289.833 157.5,319.167 128.5,348.5C 125.833,348.5 123.167,348.5 120.5,348.5C 118.784,348.371 117.117,348.038 115.5,347.5C 115.369,346.761 115.536,346.094 116,345.5C 143.035,318.632 169.868,291.632 196.5,264.5C 201.817,258.377 208.151,257.043 215.5,260.5 Z M 314.5,260.5 C 314.631,261.239 314.464,261.906 314,262.5C 285.298,291.035 256.798,319.701 228.5,348.5C 223.5,348.5 218.5,348.5 213.5,348.5C 241.5,320.167 269.5,291.833 297.5,263.5C 302.364,258.262 308.03,257.262 314.5,260.5 Z M 403.5,258.5 C 403.5,263.5 403.5,268.5 403.5,273.5C 392.833,283.5 382.5,293.833 372.5,304.5C 370.265,301.709 368.265,298.709 366.5,295.5C 378.5,282.833 390.833,270.5 403.5,258.5 Z M 219.5,263.5 C 221.808,265.471 224.142,267.471 226.5,269.5C 200.5,295.833 174.5,322.167 148.5,348.5C 143.5,348.5 138.5,348.5 133.5,348.5C 161.55,319.45 190.216,291.116 219.5,263.5 Z M 318.5,263.5 C 320.5,266.167 322.833,268.5 325.5,270.5C 299.833,296.5 274.167,322.5 248.5,348.5C 243.5,348.5 238.5,348.5 233.5,348.5C 261.5,319.833 289.833,291.5 318.5,263.5 Z M 230.5,272.5 C 232.531,274.522 234.865,276.189 237.5,277.5C 237.631,278.239 237.464,278.906 237,279.5C 213.965,302.368 191.132,325.368 168.5,348.5C 163.5,348.5 158.5,348.5 153.5,348.5C 178.55,322.449 204.217,297.116 230.5,272.5 Z M 328.5,273.5 C 331.139,275.473 333.473,277.806 335.5,280.5C 313.167,303.167 290.833,325.833 268.5,348.5C 263.5,348.5 258.5,348.5 253.5,348.5C 278.167,323.167 303.167,298.167 328.5,273.5 Z M 403.5,278.5 C 403.5,283.5 403.5,288.5 403.5,293.5C 395.5,300.833 387.833,308.5 380.5,316.5C 378.265,313.709 376.265,310.709 374.5,307.5C 383.833,297.5 393.5,287.833 403.5,278.5 Z M 240.5,280.5 C 242.884,282.885 245.55,284.885 248.5,286.5C 248.631,287.239 248.464,287.906 248,288.5C 227.965,308.368 208.132,328.368 188.5,348.5C 183.5,348.5 178.5,348.5 173.5,348.5C 195.833,325.833 218.167,303.167 240.5,280.5 Z M 339.5,283.5 C 341.167,285.833 343.167,287.833 345.5,289.5C 345.631,290.239 345.464,290.906 345,291.5C 325.965,310.368 307.132,329.368 288.5,348.5C 283.5,348.5 278.5,348.5 273.5,348.5C 294.884,326.116 316.884,304.449 339.5,283.5 Z M 270.5,285.5 C 249.833,306.5 229.167,327.5 208.5,348.5C 203.5,348.5 198.5,348.5 193.5,348.5C 212.833,328.833 232.167,309.167 251.5,289.5C 254.314,291.096 257.314,291.596 260.5,291C 264.229,289.745 267.562,287.912 270.5,285.5 Z M 348.5,292.5 C 351.167,294.833 353.833,297.167 356.5,299.5C 340.5,315.833 324.5,332.167 308.5,348.5C 303.5,348.5 298.5,348.5 293.5,348.5C 311.833,329.833 330.167,311.167 348.5,292.5 Z M 147.5,294.5 C 139.86,306.482 132.193,318.482 124.5,330.5C 120.895,335.774 116.562,340.441 111.5,344.5C 108.989,341.302 107.655,337.636 107.5,333.5C 120.833,320.5 134.167,307.5 147.5,294.5 Z M 403.5,298.5 C 403.5,303.5 403.5,308.5 403.5,313.5C 398.167,318.5 392.833,323.5 387.5,328.5C 386.099,325.366 384.432,322.366 382.5,319.5C 389.167,312.167 396.167,305.167 403.5,298.5 Z M 359.5,302.5 C 361.527,305.194 363.861,307.527 366.5,309.5C 353.833,322.5 341.167,335.5 328.5,348.5C 323.5,348.5 318.5,348.5 313.5,348.5C 328.5,332.833 343.833,317.5 359.5,302.5 Z M 369.5,312.5 C 371.833,314.5 374.167,316.5 376.5,318.5C 367.555,328.781 358.222,338.781 348.5,348.5C 343.5,348.5 338.5,348.5 333.5,348.5C 345.167,336.167 357.167,324.167 369.5,312.5 Z M 403.5,318.5 C 403.5,323.5 403.5,328.5 403.5,333.5C 398.369,338.13 393.369,342.963 388.5,348C 383.511,348.499 378.511,348.666 373.5,348.5C 383.167,338.167 393.167,328.167 403.5,318.5 Z M 380.5,322.5 C 382.808,324.471 385.142,326.471 387.5,328.5C 381.167,335.167 374.833,341.833 368.5,348.5C 363.5,348.5 358.5,348.5 353.5,348.5C 361.887,339.111 370.887,330.445 380.5,322.5 Z M 401.5,340.5 C 400.5,343.5 398.5,345.5 395.5,346.5C 397.167,344.167 399.167,342.167 401.5,340.5 Z"/></g>
<g><path style="opacity:0.024" fill="#555555" d="M 296.5,-0.5 C 298.167,-0.5 299.833,-0.5 301.5,-0.5C 300.833,0.5 300.167,1.5 299.5,2.5C 296.941,2.80155 294.607,2.46822 292.5,1.5C 294.38,1.77089 295.713,1.10422 296.5,-0.5 Z"/></g>
<g><path style="opacity:0.024" fill="#5b5b5b" d="M 316.5,-0.5 C 318.167,-0.5 319.833,-0.5 321.5,-0.5C 319.5,1.83333 317.5,4.16667 315.5,6.5C 313.374,5.95184 311.374,5.28518 309.5,4.5C 312.643,4.03104 314.977,2.36437 316.5,-0.5 Z"/></g>
<g><path style="opacity:0.024" fill="#5b5b5b" d="M 336.5,-0.5 C 338.167,-0.5 339.833,-0.5 341.5,-0.5C 338.167,3.16667 334.833,6.83333 331.5,10.5C 330.167,10.1667 328.833,9.83333 327.5,9.5C 330.5,6.16667 333.5,2.83333 336.5,-0.5 Z"/></g>
<g><path style="opacity:0.024" fill="#5a5a5a" d="M 356.5,-0.5 C 358.167,-0.5 359.833,-0.5 361.5,-0.5C 356.5,4.83333 351.5,10.1667 346.5,15.5C 344.447,15.5979 342.78,14.9313 341.5,13.5C 347.108,9.56102 352.108,4.89435 356.5,-0.5 Z"/></g>
<g><path style="opacity:0.024" fill="#5b5b5b" d="M 376.5,-0.5 C 378.167,-0.5 379.833,-0.5 381.5,-0.5C 374.5,6.83333 367.5,14.1667 360.5,21.5C 359.005,21.0113 357.671,20.3446 356.5,19.5C 363.5,13.1667 370.167,6.5 376.5,-0.5 Z"/></g>
<g><path style="opacity:0.024" fill="#5b5b5b" d="M 396.5,-0.5 C 398.167,-0.5 399.833,-0.5 401.5,-0.5C 392.111,8.88589 383.111,18.5526 374.5,28.5C 372.632,27.7368 370.965,26.7368 369.5,25.5C 379.113,17.5552 388.113,8.88853 396.5,-0.5 Z"/></g>
<g><path style="opacity:0.024" fill="#5b5b5b" d="M 416.5,-0.5 C 418.167,-0.5 419.833,-0.5 421.5,-0.5C 410.167,11.5 398.5,23.1667 386.5,34.5C 384.847,34.3404 383.514,33.6737 382.5,32.5C 394.448,22.2204 405.781,11.2204 416.5,-0.5 Z"/></g>
<g><path style="opacity:0.024" fill="#5b5b5b" d="M 436.5,-0.5 C 438.167,-0.5 439.833,-0.5 441.5,-0.5C 427.869,13.6319 414.035,27.6319 400,41.5C 399.536,42.0944 399.369,42.7611 399.5,43.5C 397.77,42.9744 396.436,41.9744 395.5,40.5C 409.5,27.1667 423.167,13.5 436.5,-0.5 Z"/></g>
<g><path style="opacity:0.024" fill="#5b5b5b" d="M 456.5,-0.5 C 458.167,-0.5 459.833,-0.5 461.5,-0.5C 444.833,16.8333 427.833,33.8333 410.5,50.5C 408.973,50.573 407.973,49.9063 407.5,48.5C 424.167,32.5 440.5,16.1667 456.5,-0.5 Z"/></g>
<g><path style="opacity:0.024" fill="#5b5b5b" d="M 476.5,-0.5 C 478.167,-0.5 479.833,-0.5 481.5,-0.5C 461.5,19.8333 441.5,40.1667 421.5,60.5C 420.167,59.8333 419.167,58.8333 418.5,57.5C 438.167,38.5 457.5,19.1667 476.5,-0.5 Z"/></g>
<g><path style="opacity:0.024" fill="#5b5b5b" d="M 496.5,-0.5 C 498.167,-0.5 499.833,-0.5 501.5,-0.5C 478.5,22.8333 455.5,46.1667 432.5,69.5C 430.596,69.2624 429.262,68.2624 428.5,66.5C 451.783,44.8842 474.45,22.5509 496.5,-0.5 Z"/></g>
<g><path style="opacity:0.024" fill="#5b5b5b" d="M 511.5,5.5 C 511.5,7.16667 511.5,8.83333 511.5,10.5C 488.167,33.1667 465.167,56.1667 442.5,79.5C 440.5,79.5 439.5,78.5 439.5,76.5C 463.5,52.8333 487.5,29.1667 511.5,5.5 Z"/></g>
<g><path style="opacity:0.024" fill="#5b5b5b" d="M 511.5,25.5 C 511.5,27.1667 511.5,28.8333 511.5,30.5C 491.5,50.1667 471.5,69.8333 451.5,89.5C 450.5,89.1667 449.833,88.5 449.5,87.5C 469.833,66.5 490.5,45.8333 511.5,25.5 Z"/></g>
<g><path style="opacity:0.024" fill="#5b5b5b" d="M 511.5,45.5 C 511.5,47.1667 511.5,48.8333 511.5,50.5C 494.167,67.1667 477.167,84.1667 460.5,101.5C 459.512,100.205 458.512,98.8717 457.5,97.5C 458.239,97.631 458.906,97.4643 459.5,97C 476.701,79.6316 494.035,62.4649 511.5,45.5 Z"/></g>
<g><path style="opacity:0.024" fill="#5b5b5b" d="M 511.5,65.5 C 511.5,67.1667 511.5,68.8333 511.5,70.5C 497.167,84.5 482.833,98.5 468.5,112.5C 467.599,111.71 466.932,110.71 466.5,109.5C 481.5,94.8333 496.5,80.1667 511.5,65.5 Z"/></g>
<g><path style="opacity:0.024" fill="#5b5b5b" d="M 511.5,85.5 C 511.5,87.1667 511.5,88.8333 511.5,90.5C 499.5,101.833 487.833,113.5 476.5,125.5C 475.326,124.486 474.66,123.153 474.5,121.5C 486.833,109.5 499.167,97.5 511.5,85.5 Z"/></g>
<g><path style="opacity:0.024" fill="#5b5b5b" d="M 511.5,105.5 C 511.5,107.167 511.5,108.833 511.5,110.5C 502.167,119.5 492.833,128.5 483.5,137.5C 482.599,136.71 481.932,135.71 481.5,134.5C 491.5,124.833 501.5,115.167 511.5,105.5 Z"/></g>
<g><path style="opacity:0.024" fill="#5a5a5a" d="M 38.5,118.5 C 36.683,122.801 34.3497,126.801 31.5,130.5C 30.8333,130.5 30.5,130.833 30.5,131.5C 29.8333,131.5 29.5,131.833 29.5,132.5C 19.5,142.167 9.5,151.833 -0.5,161.5C -0.5,159.833 -0.5,158.167 -0.5,156.5C 12.5,143.833 25.5,131.167 38.5,118.5 Z"/></g>
<g><path style="opacity:0.024" fill="#5b5b5b" d="M 511.5,125.5 C 511.5,127.167 511.5,128.833 511.5,130.5C 503.776,137.222 496.776,144.555 490.5,152.5C 489.463,151.07 488.796,149.403 488.5,147.5C 496.167,140.167 503.833,132.833 511.5,125.5 Z"/></g>
<g><path style="opacity:0.024" fill="#5b5b5b" d="M 511.5,145.5 C 511.5,147.167 511.5,148.833 511.5,150.5C 505.773,155.224 500.773,160.558 496.5,166.5C 495.069,165.22 494.402,163.553 494.5,161.5C 500.167,156.167 505.833,150.833 511.5,145.5 Z"/></g>
<g><path style="opacity:0.024" fill="#5a5a5a" d="M 17.5,159.5 C 17.0598,162.38 16.0598,165.046 14.5,167.5C 13.8333,167.5 13.5,167.833 13.5,168.5C 8.83333,172.833 4.16667,177.167 -0.5,181.5C -0.5,179.833 -0.5,178.167 -0.5,176.5C 5.5,170.833 11.5,165.167 17.5,159.5 Z"/></g>
<g><path style="opacity:0.024" fill="#4c4c4b" d="M 121.5,162.5 C 210.833,161.167 300.167,161.167 389.5,162.5C 385.833,162.5 382.167,162.5 378.5,162.5C 376.833,162.5 375.167,162.5 373.5,162.5C 368.5,162.5 363.5,162.5 358.5,162.5C 356.833,162.5 355.167,162.5 353.5,162.5C 348.5,162.5 343.5,162.5 338.5,162.5C 336.833,162.5 335.167,162.5 333.5,162.5C 328.5,162.5 323.5,162.5 318.5,162.5C 316.833,162.5 315.167,162.5 313.5,162.5C 308.5,162.5 303.5,162.5 298.5,162.5C 296.833,162.5 295.167,162.5 293.5,162.5C 288.5,162.5 283.5,162.5 278.5,162.5C 276.833,162.5 275.167,162.5 273.5,162.5C 268.5,162.5 263.5,162.5 258.5,162.5C 256.833,162.5 255.167,162.5 253.5,162.5C 248.5,162.5 243.5,162.5 238.5,162.5C 236.833,162.5 235.167,162.5 233.5,162.5C 228.5,162.5 223.5,162.5 218.5,162.5C 216.833,162.5 215.167,162.5 213.5,162.5C 208.5,162.5 203.5,162.5 198.5,162.5C 196.833,162.5 195.167,162.5 193.5,162.5C 188.5,162.5 183.5,162.5 178.5,162.5C 176.833,162.5 175.167,162.5 173.5,162.5C 168.5,162.5 163.5,162.5 158.5,162.5C 156.833,162.5 155.167,162.5 153.5,162.5C 148.489,162.334 143.489,162.501 138.5,163C 128.298,173.369 117.965,183.535 107.5,193.5C 106.506,192.001 106.506,190.334 107.5,188.5C 116.298,180.202 124.965,171.702 133.5,163C 129.514,162.501 125.514,162.334 121.5,162.5 Z"/></g>
<g><path style="opacity:0.024" fill="#5b5b5b" d="M 153.5,162.5 C 155.167,162.5 156.833,162.5 158.5,162.5C 151.167,170.167 143.833,177.833 136.5,185.5C 135.833,185.5 135.5,185.833 135.5,186.5C 126.167,195.5 116.833,204.5 107.5,213.5C 106.506,212.001 106.506,210.334 107.5,208.5C 123.167,193.5 138.5,178.167 153.5,162.5 Z"/></g>
<g><path style="opacity:0.024" fill="#5b5b5b" d="M 173.5,162.5 C 175.167,162.5 176.833,162.5 178.5,162.5C 168.5,172.833 158.5,183.167 148.5,193.5C 146.973,193.573 145.973,192.906 145.5,191.5C 154.833,181.833 164.167,172.167 173.5,162.5 Z"/></g>
<g><path style="opacity:0.024" fill="#5b5b5b" d="M 193.5,162.5 C 195.167,162.5 196.833,162.5 198.5,162.5C 186.202,175.298 173.702,187.965 161,200.5C 160.536,201.094 160.369,201.761 160.5,202.5C 159.167,201.833 158.167,200.833 157.5,199.5C 169.5,187.167 181.5,174.833 193.5,162.5 Z"/></g>
<g><path style="opacity:0.024" fill="#5b5b5b" d="M 213.5,162.5 C 215.167,162.5 216.833,162.5 218.5,162.5C 203.535,177.965 188.368,193.299 173,208.5C 172.536,209.094 172.369,209.761 172.5,210.5C 170.596,210.262 169.262,209.262 168.5,207.5C 183.833,192.833 198.833,177.833 213.5,162.5 Z"/></g>
<g><path style="opacity:0.024" fill="#5b5b5b" d="M 233.5,162.5 C 235.167,162.5 236.833,162.5 238.5,162.5C 220.167,181.167 201.833,199.833 183.5,218.5C 182.167,217.833 181.167,216.833 180.5,215.5C 198.5,198.167 216.167,180.5 233.5,162.5 Z"/></g>
<g><path style="opacity:0.024" fill="#5b5b5b" d="M 253.5,162.5 C 255.167,162.5 256.833,162.5 258.5,162.5C 237.5,183.833 216.5,205.167 195.5,226.5C 194.128,225.488 192.795,224.488 191.5,223.5C 212.783,203.884 233.45,183.551 253.5,162.5 Z"/></g>
<g><path style="opacity:0.024" fill="#5b5b5b" d="M 273.5,162.5 C 275.167,162.5 276.833,162.5 278.5,162.5C 254.833,186.5 231.167,210.5 207.5,234.5C 205.77,233.974 204.436,232.974 203.5,231.5C 227.45,209.217 250.783,186.217 273.5,162.5 Z"/></g>
<g><path style="opacity:0.024" fill="#5b5b5b" d="M 293.5,162.5 C 295.167,162.5 296.833,162.5 298.5,162.5C 272.167,189.167 245.833,215.833 219.5,242.5C 217.973,242.573 216.973,241.906 216.5,240.5C 242.167,214.5 267.833,188.5 293.5,162.5 Z"/></g>
<g><path style="opacity:0.024" fill="#5b5b5b" d="M 313.5,162.5 C 315.167,162.5 316.833,162.5 318.5,162.5C 289.5,191.833 260.5,221.167 231.5,250.5C 229.847,250.34 228.514,249.674 227.5,248.5C 256.5,220.167 285.167,191.5 313.5,162.5 Z"/></g>
<g><path style="opacity:0.024" fill="#5b5b5b" d="M 333.5,162.5 C 335.167,162.5 336.833,162.5 338.5,162.5C 307.201,194.299 275.701,225.965 244,257.5C 243.536,258.094 243.369,258.761 243.5,259.5C 241.77,258.974 240.436,257.974 239.5,256.5C 271.167,225.5 302.5,194.167 333.5,162.5 Z"/></g>
<g><path style="opacity:0.024" fill="#5b5b5b" d="M 353.5,162.5 C 355.167,162.5 356.833,162.5 358.5,162.5C 324.535,196.965 290.368,231.299 256,265.5C 255.536,266.094 255.369,266.761 255.5,267.5C 253.77,266.974 252.436,265.974 251.5,264.5C 285.833,230.833 319.833,196.833 353.5,162.5 Z"/></g>
<g><path style="opacity:0.024" fill="#5b5b5b" d="M 373.5,162.5 C 375.167,162.5 376.833,162.5 378.5,162.5C 355.167,186.167 331.833,209.833 308.5,233.5C 307.833,233.5 307.5,233.833 307.5,234.5C 306.833,234.5 306.5,234.833 306.5,235.5C 301.523,239.658 296.189,243.324 290.5,246.5C 318.167,218.5 345.833,190.5 373.5,162.5 Z"/></g>
<g><path style="opacity:0.024" fill="#595959" d="M 393.5,162.5 C 394.71,162.932 395.71,163.599 396.5,164.5C 389.167,172.167 381.833,179.833 374.5,187.5C 373.833,187.5 373.5,187.833 373.5,188.5C 372.833,188.5 372.5,188.833 372.5,189.5C 367.523,193.658 362.189,197.324 356.5,200.5C 368.833,187.833 381.167,175.167 393.5,162.5 Z"/></g>
<g><path style="opacity:0.024" fill="#545454" d="M 118.5,162.5 C 115.167,166.5 111.5,170.167 107.5,173.5C 108.833,167.5 112.5,163.833 118.5,162.5 Z"/></g>
<g><path style="opacity:0.024" fill="#5a5a5a" d="M 511.5,165.5 C 511.5,167.167 511.5,168.833 511.5,170.5C 507.006,173.65 503.672,177.65 501.5,182.5C 500.542,180.698 499.875,178.698 499.5,176.5C 503.5,172.833 507.5,169.167 511.5,165.5 Z"/></g>
<g><path style="opacity:0.024" fill="#5b5b5b" d="M 402.5,172.5 C 403.461,174.265 403.795,176.265 403.5,178.5C 380.167,201.167 357.167,224.167 334.5,247.5C 332.896,246.713 332.229,245.38 332.5,243.5C 356.551,220.45 379.884,196.783 402.5,172.5 Z"/></g>
<g><path style="opacity:1" fill="#3573bd" d="M 136.5,185.5 C 139.5,187.5 142.5,189.5 145.5,191.5C 145.973,192.906 146.973,193.573 148.5,193.5C 151.291,195.735 154.291,197.735 157.5,199.5C 158.167,200.833 159.167,201.833 160.5,202.5C 163.167,204.167 165.833,205.833 168.5,207.5C 169.262,209.262 170.596,210.262 172.5,210.5C 175.167,212.167 177.833,213.833 180.5,215.5C 181.167,216.833 182.167,217.833 183.5,218.5C 186.511,219.669 189.178,221.336 191.5,223.5C 192.795,224.488 194.128,225.488 195.5,226.5C 198.167,228.167 200.833,229.833 203.5,231.5C 204.436,232.974 205.77,233.974 207.5,234.5C 210.5,236.5 213.5,238.5 216.5,240.5C 216.973,241.906 217.973,242.573 219.5,242.5C 222.473,244.147 225.14,246.147 227.5,248.5C 228.514,249.674 229.847,250.34 231.5,250.5C 234.167,252.5 236.833,254.5 239.5,256.5C 240.436,257.974 241.77,258.974 243.5,259.5C 246.167,261.167 248.833,262.833 251.5,264.5C 252.436,265.974 253.77,266.974 255.5,267.5C 256.265,267.923 257.098,268.257 258,268.5C 269.251,261.743 280.084,254.41 290.5,246.5C 296.189,243.324 301.523,239.658 306.5,235.5C 307.167,235.5 307.5,235.167 307.5,234.5C 308.167,234.5 308.5,234.167 308.5,233.5C 324.819,223.004 340.819,212.004 356.5,200.5C 362.189,197.324 367.523,193.658 372.5,189.5C 373.167,189.5 373.5,189.167 373.5,188.5C 374.167,188.5 374.5,188.167 374.5,187.5C 375.609,187.443 376.609,187.11 377.5,186.5C 378.167,186.5 378.5,186.833 378.5,187.5C 364.173,201.994 350.006,216.661 336,231.5C 333.323,235.034 332.156,239.034 332.5,243.5C 332.229,245.38 332.896,246.713 334.5,247.5C 336.432,250.366 338.099,253.366 339.5,256.5C 340.167,257.833 341.167,258.833 342.5,259.5C 344.265,262.709 346.265,265.709 348.5,268.5C 348.427,270.027 349.094,271.027 350.5,271.5C 352.432,274.366 354.099,277.366 355.5,280.5C 356.167,281.833 357.167,282.833 358.5,283.5C 360.432,286.366 362.099,289.366 363.5,292.5C 364.167,293.833 365.167,294.833 366.5,295.5C 368.265,298.709 370.265,301.709 372.5,304.5C 372.427,306.027 373.094,307.027 374.5,307.5C 376.265,310.709 378.265,313.709 380.5,316.5C 380.427,318.027 381.094,319.027 382.5,319.5C 384.432,322.366 386.099,325.366 387.5,328.5C 385.142,326.471 382.808,324.471 380.5,322.5C 379.5,320.833 378.167,319.5 376.5,318.5C 374.167,316.5 371.833,314.5 369.5,312.5C 369.144,310.81 368.144,309.81 366.5,309.5C 363.861,307.527 361.527,305.194 359.5,302.5C 358.833,301.167 357.833,300.167 356.5,299.5C 353.833,297.167 351.167,294.833 348.5,292.5C 347.833,291.167 346.833,290.167 345.5,289.5C 343.167,287.833 341.167,285.833 339.5,283.5C 338.738,281.738 337.404,280.738 335.5,280.5C 333.473,277.806 331.139,275.473 328.5,273.5C 327.833,272.167 326.833,271.167 325.5,270.5C 322.833,268.5 320.5,266.167 318.5,263.5C 317.205,262.512 315.872,261.512 314.5,260.5C 308.03,257.262 302.364,258.262 297.5,263.5C 289.281,268.778 281.614,274.778 274.5,281.5C 273.833,281.5 273.5,281.833 273.5,282.5C 272.833,282.5 272.5,282.833 272.5,283.5C 271.833,283.5 271.5,283.833 271.5,284.5C 270.833,284.5 270.5,284.833 270.5,285.5C 267.562,287.912 264.229,289.745 260.5,291C 257.314,291.596 254.314,291.096 251.5,289.5C 250.833,288.167 249.833,287.167 248.5,286.5C 245.55,284.885 242.884,282.885 240.5,280.5C 239.833,279.167 238.833,278.167 237.5,277.5C 234.865,276.189 232.531,274.522 230.5,272.5C 229.738,270.738 228.404,269.738 226.5,269.5C 224.142,267.471 221.808,265.471 219.5,263.5C 218.205,262.512 216.872,261.512 215.5,260.5C 208.151,257.043 201.817,258.377 196.5,264.5C 172.459,286.509 148.459,308.509 124.5,330.5C 132.193,318.482 139.86,306.482 147.5,294.5C 148.167,294.5 148.5,294.167 148.5,293.5C 149.167,293.5 149.5,293.167 149.5,292.5C 153.61,288.049 156.944,283.049 159.5,277.5C 165.657,268.529 171.823,259.529 178,250.5C 180.035,247.439 181.201,244.105 181.5,240.5C 182.043,240.44 182.376,240.107 182.5,239.5C 181.972,237.664 181.306,235.997 180.5,234.5C 179.219,231.553 177.219,229.219 174.5,227.5C 174.262,225.596 173.262,224.262 171.5,223.5C 169.167,221.833 167.167,219.833 165.5,217.5C 164.5,215.833 163.167,214.5 161.5,213.5C 158.939,211.36 156.605,209.027 154.5,206.5C 154.167,205.5 153.5,204.833 152.5,204.5C 150.167,201.833 147.833,199.167 145.5,196.5C 144.833,195.167 143.833,194.167 142.5,193.5C 139.833,191.5 137.5,189.167 135.5,186.5C 135.5,185.833 135.833,185.5 136.5,185.5 Z"/></g>
<g><path style="opacity:0.004" fill="#1c1c1c" d="M 378.5,187.5 C 378.5,186.833 378.167,186.5 377.5,186.5C 378.172,185.733 379.005,185.066 380,184.5C 380.585,185.998 380.085,186.998 378.5,187.5 Z"/></g>
<g><path style="opacity:0.024" fill="#595958" d="M 511.5,185.5 C 511.5,187.167 511.5,188.833 511.5,190.5C 508.757,192.239 506.757,194.573 505.5,197.5C 504.715,195.626 504.048,193.626 503.5,191.5C 506.431,189.909 509.098,187.909 511.5,185.5 Z"/></g>
<g><path style="opacity:0.024" fill="#595959" d="M 7.5,189.5 C 7.27852,192.067 6.61185,194.401 5.5,196.5C 3.5,198.167 1.5,199.833 -0.5,201.5C -0.5,199.833 -0.5,198.167 -0.5,196.5C 2.16667,194.167 4.83333,191.833 7.5,189.5 Z"/></g>
<g><path style="opacity:0.024" fill="#5a5a5a" d="M 142.5,193.5 C 143.833,194.167 144.833,195.167 145.5,196.5C 132.833,208.833 120.167,221.167 107.5,233.5C 106.506,232.001 106.506,230.334 107.5,228.5C 119.5,217.167 131.167,205.5 142.5,193.5 Z"/></g>
<g><path style="opacity:0.024" fill="#5b5b5b" d="M 403.5,193.5 C 404.494,194.999 404.494,196.666 403.5,198.5C 382.833,218.5 362.5,238.833 342.5,259.5C 341.167,258.833 340.167,257.833 339.5,256.5C 360.833,235.5 382.167,214.5 403.5,193.5 Z"/></g>
<g><path style="opacity:0.024" fill="#5b5b5b" d="M 152.5,204.5 C 153.5,204.833 154.167,205.5 154.5,206.5C 139.167,222.5 123.5,238.167 107.5,253.5C 106.506,252.001 106.506,250.334 107.5,248.5C 122.5,233.833 137.5,219.167 152.5,204.5 Z"/></g>
<g><path style="opacity:0.024" fill="#575757" d="M 511.5,205.5 C 511.5,207.167 511.5,208.833 511.5,210.5C 510.5,211.167 509.5,211.833 508.5,212.5C 507.566,211.432 507.232,210.099 507.5,208.5C 508.833,207.5 510.167,206.5 511.5,205.5 Z"/></g>
<g><path style="opacity:0.024" fill="#5b5b5b" d="M 403.5,213.5 C 404.494,214.999 404.494,216.666 403.5,218.5C 385.5,235.833 367.833,253.5 350.5,271.5C 349.094,271.027 348.427,270.027 348.5,268.5C 366.5,249.833 384.833,231.5 403.5,213.5 Z"/></g>
<g><path style="opacity:0.024" fill="#5a5a5a" d="M 161.5,213.5 C 163.167,214.5 164.5,215.833 165.5,217.5C 164.761,217.369 164.094,217.536 163.5,218C 144.965,236.702 126.299,255.202 107.5,273.5C 106.506,272.001 106.506,270.334 107.5,268.5C 126.218,250.783 144.218,232.449 161.5,213.5 Z"/></g>
<g><path style="opacity:0.024" fill="#575757" d="M 2.5,214.5 C 2.16667,216.5 1.83333,218.5 1.5,220.5C 0.833333,220.833 0.166667,221.167 -0.5,221.5C -0.5,219.833 -0.5,218.167 -0.5,216.5C 0.5,215.833 1.5,215.167 2.5,214.5 Z"/></g>
<g><path style="opacity:0.024" fill="#5b5b5b" d="M 171.5,223.5 C 173.262,224.262 174.262,225.596 174.5,227.5C 152.167,249.5 129.833,271.5 107.5,293.5C 106.506,292.001 106.506,290.334 107.5,288.5C 129.551,267.45 150.884,245.783 171.5,223.5 Z"/></g>
<g><path style="opacity:0.024" fill="#555555" d="M 510.5,225.5 C 510.833,225.5 511.167,225.5 511.5,225.5C 511.5,227.167 511.5,228.833 511.5,230.5C 511.167,230.5 510.833,230.5 510.5,230.5C 509.167,228.833 509.167,227.167 510.5,225.5 Z"/></g>
<g><path style="opacity:0.024" fill="#5a5a5a" d="M 403.5,233.5 C 404.494,234.999 404.494,236.666 403.5,238.5C 388.167,253.167 373.167,268.167 358.5,283.5C 357.167,282.833 356.167,281.833 355.5,280.5C 371.5,264.833 387.5,249.167 403.5,233.5 Z"/></g>
<g><path style="opacity:0.024" fill="#5b5b5b" d="M 180.5,234.5 C 181.306,235.997 181.972,237.664 182.5,239.5C 182.376,240.107 182.043,240.44 181.5,240.5C 156.833,264.833 132.167,289.167 107.5,313.5C 106.506,312.001 106.506,310.334 107.5,308.5C 132.551,284.45 156.884,259.783 180.5,234.5 Z"/></g>
<g><path style="opacity:0.024" fill="#5a5a5a" d="M 403.5,253.5 C 404.494,254.999 404.494,256.666 403.5,258.5C 390.833,270.5 378.5,282.833 366.5,295.5C 365.167,294.833 364.167,293.833 363.5,292.5C 376.833,279.5 390.167,266.5 403.5,253.5 Z"/></g>
<g><path style="opacity:0.024" fill="#5b5b5b" d="M 215.5,260.5 C 216.872,261.512 218.205,262.512 219.5,263.5C 190.216,291.116 161.55,319.45 133.5,348.5C 131.833,348.5 130.167,348.5 128.5,348.5C 157.5,319.167 186.5,289.833 215.5,260.5 Z"/></g>
<g><path style="opacity:0.024" fill="#5b5b5b" d="M 314.5,260.5 C 315.872,261.512 317.205,262.512 318.5,263.5C 289.833,291.5 261.5,319.833 233.5,348.5C 231.833,348.5 230.167,348.5 228.5,348.5C 256.798,319.701 285.298,291.035 314,262.5C 314.464,261.906 314.631,261.239 314.5,260.5 Z"/></g>
<g><path style="opacity:0.024" fill="#5b5b5a" d="M 297.5,263.5 C 269.5,291.833 241.5,320.167 213.5,348.5C 211.833,348.5 210.167,348.5 208.5,348.5C 229.167,327.5 249.833,306.5 270.5,285.5C 271.167,285.5 271.5,285.167 271.5,284.5C 272.167,284.5 272.5,284.167 272.5,283.5C 273.167,283.5 273.5,283.167 273.5,282.5C 274.167,282.5 274.5,282.167 274.5,281.5C 281.614,274.778 289.281,268.778 297.5,263.5 Z"/></g>
<g><path style="opacity:0.024" fill="#5b5b5b" d="M 226.5,269.5 C 228.404,269.738 229.738,270.738 230.5,272.5C 204.217,297.116 178.55,322.449 153.5,348.5C 151.833,348.5 150.167,348.5 148.5,348.5C 174.5,322.167 200.5,295.833 226.5,269.5 Z"/></g>
<g><path style="opacity:0.024" fill="#5b5b5b" d="M 325.5,270.5 C 326.833,271.167 327.833,272.167 328.5,273.5C 303.167,298.167 278.167,323.167 253.5,348.5C 251.833,348.5 250.167,348.5 248.5,348.5C 274.167,322.5 299.833,296.5 325.5,270.5 Z"/></g>
<g><path style="opacity:0.024" fill="#5a5a5a" d="M 403.5,273.5 C 404.494,274.999 404.494,276.666 403.5,278.5C 393.5,287.833 383.833,297.5 374.5,307.5C 373.094,307.027 372.427,306.027 372.5,304.5C 382.5,293.833 392.833,283.5 403.5,273.5 Z"/></g>
<g><path style="opacity:0.024" fill="#5b5b5b" d="M 237.5,277.5 C 238.833,278.167 239.833,279.167 240.5,280.5C 218.167,303.167 195.833,325.833 173.5,348.5C 171.833,348.5 170.167,348.5 168.5,348.5C 191.132,325.368 213.965,302.368 237,279.5C 237.464,278.906 237.631,278.239 237.5,277.5 Z"/></g>
<g><path style="opacity:0.024" fill="#5a5a5a" d="M 159.5,277.5 C 156.944,283.049 153.61,288.049 149.5,292.5C 148.833,292.5 148.5,292.833 148.5,293.5C 147.833,293.5 147.5,293.833 147.5,294.5C 134.167,307.5 120.833,320.5 107.5,333.5C 106.506,332.001 106.506,330.334 107.5,328.5C 124.833,311.5 142.167,294.5 159.5,277.5 Z"/></g>
<g><path style="opacity:0.024" fill="#5b5b5b" d="M 335.5,280.5 C 337.404,280.738 338.738,281.738 339.5,283.5C 316.884,304.449 294.884,326.116 273.5,348.5C 271.833,348.5 270.167,348.5 268.5,348.5C 290.833,325.833 313.167,303.167 335.5,280.5 Z"/></g>
<g><path style="opacity:0.024" fill="#575757" d="M 510.5,285.5 C 510.833,285.5 511.167,285.5 511.5,285.5C 511.5,287.167 511.5,288.833 511.5,290.5C 510.833,290.833 510.167,291.167 509.5,291.5C 509.325,289.379 509.659,287.379 510.5,285.5 Z"/></g>
<g><path style="opacity:0.024" fill="#5b5b5b" d="M 248.5,286.5 C 249.833,287.167 250.833,288.167 251.5,289.5C 232.167,309.167 212.833,328.833 193.5,348.5C 191.833,348.5 190.167,348.5 188.5,348.5C 208.132,328.368 227.965,308.368 248,288.5C 248.464,287.906 248.631,287.239 248.5,286.5 Z"/></g>
<g><path style="opacity:0.024" fill="#5c5c5c" d="M 345.5,289.5 C 346.833,290.167 347.833,291.167 348.5,292.5C 330.167,311.167 311.833,329.833 293.5,348.5C 291.833,348.5 290.167,348.5 288.5,348.5C 307.132,329.368 325.965,310.368 345,291.5C 345.464,290.906 345.631,290.239 345.5,289.5 Z"/></g>
<g><path style="opacity:0.024" fill="#585858" d="M 196.5,264.5 C 169.868,291.632 143.035,318.632 116,345.5C 115.536,346.094 115.369,346.761 115.5,347.5C 114.128,346.488 112.795,345.488 111.5,344.5C 116.562,340.441 120.895,335.774 124.5,330.5C 148.459,308.509 172.459,286.509 196.5,264.5 Z"/></g>
<g><path style="opacity:0.024" fill="#5a5a5a" d="M 403.5,293.5 C 404.494,294.999 404.494,296.666 403.5,298.5C 396.167,305.167 389.167,312.167 382.5,319.5C 381.094,319.027 380.427,318.027 380.5,316.5C 387.833,308.5 395.5,300.833 403.5,293.5 Z"/></g>
<g><path style="opacity:0.024" fill="#555555" d="M 1.5,292.5 C 2.46822,294.607 2.80155,296.941 2.5,299.5C 1.5,300.167 0.5,300.833 -0.5,301.5C -0.5,299.833 -0.5,298.167 -0.5,296.5C 1.10422,295.713 1.77089,294.38 1.5,292.5 Z"/></g>
<g><path style="opacity:0.024" fill="#5b5b5b" d="M 356.5,299.5 C 357.833,300.167 358.833,301.167 359.5,302.5C 343.833,317.5 328.5,332.833 313.5,348.5C 311.833,348.5 310.167,348.5 308.5,348.5C 324.5,332.167 340.5,315.833 356.5,299.5 Z"/></g>
<g><path style="opacity:0.024" fill="#5a5a5a" d="M 511.5,305.5 C 511.5,307.167 511.5,308.833 511.5,310.5C 509.167,312.5 506.833,314.5 504.5,316.5C 505.015,314.106 505.681,311.772 506.5,309.5C 508.167,308.167 509.833,306.833 511.5,305.5 Z"/></g>
<g><path style="opacity:0.024" fill="#5b5b5b" d="M 366.5,309.5 C 368.144,309.81 369.144,310.81 369.5,312.5C 357.167,324.167 345.167,336.167 333.5,348.5C 331.833,348.5 330.167,348.5 328.5,348.5C 341.167,335.5 353.833,322.5 366.5,309.5 Z"/></g>
<g><path style="opacity:0.024" fill="#5d5d5d" d="M 4.5,310.5 C 5.30921,312.028 5.97588,313.694 6.5,315.5C 4.16667,317.5 1.83333,319.5 -0.5,321.5C -0.5,319.833 -0.5,318.167 -0.5,316.5C 1.91395,315.089 3.58062,313.089 4.5,310.5 Z"/></g>
<g><path style="opacity:0.024" fill="#5a5a5a" d="M 403.5,313.5 C 404.494,314.999 404.494,316.666 403.5,318.5C 393.167,328.167 383.167,338.167 373.5,348.5C 371.833,348.5 370.167,348.5 368.5,348.5C 374.833,341.833 381.167,335.167 387.5,328.5C 392.833,323.5 398.167,318.5 403.5,313.5 Z"/></g>
<g><path style="opacity:0.024" fill="#5b5b5b" d="M 376.5,318.5 C 378.167,319.5 379.5,320.833 380.5,322.5C 370.887,330.445 361.887,339.111 353.5,348.5C 351.833,348.5 350.167,348.5 348.5,348.5C 358.222,338.781 367.555,328.781 376.5,318.5 Z"/></g>
<g><path style="opacity:0.024" fill="#5a5a5a" d="M 511.5,325.5 C 511.5,327.167 511.5,328.833 511.5,330.5C 506.5,335.167 501.5,339.833 496.5,344.5C 496.394,341.921 497.061,339.588 498.5,337.5C 499.167,337.5 499.5,337.167 499.5,336.5C 503.5,332.833 507.5,329.167 511.5,325.5 Z"/></g>
<g><path style="opacity:0.024" fill="#5a5a5a" d="M 9.5,327.5 C 10.2341,328.708 10.5674,330.041 10.5,331.5C 6.83333,334.833 3.16667,338.167 -0.5,341.5C -0.5,339.833 -0.5,338.167 -0.5,336.5C 2.83333,333.5 6.16667,330.5 9.5,327.5 Z"/></g>
<g><path style="opacity:0.024" fill="#494949" d="M 403.5,333.5 C 403.938,333.435 404.272,333.601 404.5,334C 403.756,335.815 403.089,337.648 402.5,339.5C 401.833,339.5 401.5,339.833 401.5,340.5C 399.167,342.167 397.167,344.167 395.5,346.5C 394.466,347.687 393.133,348.52 391.5,349C 300.999,349.832 210.666,349.666 120.5,348.5C 123.167,348.5 125.833,348.5 128.5,348.5C 130.167,348.5 131.833,348.5 133.5,348.5C 138.5,348.5 143.5,348.5 148.5,348.5C 150.167,348.5 151.833,348.5 153.5,348.5C 158.5,348.5 163.5,348.5 168.5,348.5C 170.167,348.5 171.833,348.5 173.5,348.5C 178.5,348.5 183.5,348.5 188.5,348.5C 190.167,348.5 191.833,348.5 193.5,348.5C 198.5,348.5 203.5,348.5 208.5,348.5C 210.167,348.5 211.833,348.5 213.5,348.5C 218.5,348.5 223.5,348.5 228.5,348.5C 230.167,348.5 231.833,348.5 233.5,348.5C 238.5,348.5 243.5,348.5 248.5,348.5C 250.167,348.5 251.833,348.5 253.5,348.5C 258.5,348.5 263.5,348.5 268.5,348.5C 270.167,348.5 271.833,348.5 273.5,348.5C 278.5,348.5 283.5,348.5 288.5,348.5C 290.167,348.5 291.833,348.5 293.5,348.5C 298.5,348.5 303.5,348.5 308.5,348.5C 310.167,348.5 311.833,348.5 313.5,348.5C 318.5,348.5 323.5,348.5 328.5,348.5C 330.167,348.5 331.833,348.5 333.5,348.5C 338.5,348.5 343.5,348.5 348.5,348.5C 350.167,348.5 351.833,348.5 353.5,348.5C 358.5,348.5 363.5,348.5 368.5,348.5C 370.167,348.5 371.833,348.5 373.5,348.5C 378.511,348.666 383.511,348.499 388.5,348C 393.369,342.963 398.369,338.13 403.5,333.5 Z"/></g>
<g><path style="opacity:0.024" fill="#5b5b5b" d="M 13.5,341.5 C 14.9313,342.78 15.5979,344.447 15.5,346.5C 10.1667,351.5 4.83333,356.5 -0.5,361.5C -0.5,359.833 -0.5,358.167 -0.5,356.5C 4.89435,352.108 9.56102,347.108 13.5,341.5 Z"/></g>
<g><path style="opacity:0.024" fill="#5a5a5a" d="M 511.5,345.5 C 511.5,347.167 511.5,348.833 511.5,350.5C 500.167,361.5 488.833,372.5 477.5,383.5C 479.837,379.492 482.17,375.492 484.5,371.5C 485.167,371.5 485.5,371.167 485.5,370.5C 494.167,362.167 502.833,353.833 511.5,345.5 Z"/></g>
<g><path style="opacity:0.024" fill="#5b5b5b" d="M 19.5,356.5 C 20.6737,357.514 21.3404,358.847 21.5,360.5C 14.1667,367.5 6.83333,374.5 -0.5,381.5C -0.5,379.833 -0.5,378.167 -0.5,376.5C 6.5,370.167 13.1667,363.5 19.5,356.5 Z"/></g>
<g><path style="opacity:0.024" fill="#5b5b5b" d="M 511.5,365.5 C 511.5,367.167 511.5,368.833 511.5,370.5C 464.167,417.167 417.167,464.167 370.5,511.5C 368.833,511.5 367.167,511.5 365.5,511.5C 413.833,462.5 462.5,413.833 511.5,365.5 Z"/></g>
<g><path style="opacity:0.024" fill="#5b5b5b" d="M 25.5,370.5 C 26.9744,371.436 27.9744,372.77 28.5,374.5C 18.5526,383.111 8.88589,392.111 -0.5,401.5C -0.5,399.833 -0.5,398.167 -0.5,396.5C 8.5,388.167 17.1667,379.5 25.5,370.5 Z"/></g>
<g><path style="opacity:0.024" fill="#5b5b5b" d="M 32.5,382.5 C 34.1042,383.287 34.7709,384.62 34.5,386.5C 23.1667,398.5 11.5,410.167 -0.5,421.5C -0.5,419.833 -0.5,418.167 -0.5,416.5C 11.2204,405.781 22.2204,394.448 32.5,382.5 Z"/></g>
<g><path style="opacity:0.024" fill="#5b5b5b" d="M 511.5,385.5 C 511.5,387.167 511.5,388.833 511.5,390.5C 470.833,430.5 430.5,470.833 390.5,511.5C 388.833,511.5 387.167,511.5 385.5,511.5C 427.167,469.167 469.167,427.167 511.5,385.5 Z"/></g>
<g><path style="opacity:0.024" fill="#5b5b5b" d="M 40.5,395.5 C 41.4884,396.795 42.4884,398.128 43.5,399.5C 42.7611,399.369 42.0944,399.536 41.5,400C 27.6319,414.035 13.6319,427.869 -0.5,441.5C -0.5,439.833 -0.5,438.167 -0.5,436.5C 13.5,423.167 27.1667,409.5 40.5,395.5 Z"/></g>
<g><path style="opacity:0.024" fill="#5b5b5b" d="M 511.5,405.5 C 511.5,407.167 511.5,408.833 511.5,410.5C 477.5,443.833 443.833,477.5 410.5,511.5C 408.833,511.5 407.167,511.5 405.5,511.5C 440.5,475.833 475.833,440.5 511.5,405.5 Z"/></g>
<g><path style="opacity:0.024" fill="#5b5b5b" d="M 48.5,407.5 C 49.9063,407.973 50.573,408.973 50.5,410.5C 33.8333,427.833 16.8333,444.833 -0.5,461.5C -0.5,459.833 -0.5,458.167 -0.5,456.5C 16.1667,440.5 32.5,424.167 48.5,407.5 Z"/></g>
<g><path style="opacity:0.024" fill="#5b5b5b" d="M 57.5,418.5 C 58.9063,418.973 59.573,419.973 59.5,421.5C 39.8333,441.833 19.8333,461.833 -0.5,481.5C -0.5,479.833 -0.5,478.167 -0.5,476.5C 19.1667,457.5 38.5,438.167 57.5,418.5 Z"/></g>
<g><path style="opacity:0.024" fill="#5b5b5b" d="M 511.5,425.5 C 511.5,427.167 511.5,428.833 511.5,430.5C 484.167,457.167 457.167,484.167 430.5,511.5C 428.833,511.5 427.167,511.5 425.5,511.5C 453.833,482.5 482.5,453.833 511.5,425.5 Z"/></g>
<g><path style="opacity:0.024" fill="#5b5b5b" d="M 66.5,429.5 C 68.5,429.5 69.5,430.5 69.5,432.5C 46.1667,455.5 22.8333,478.5 -0.5,501.5C -0.5,499.833 -0.5,498.167 -0.5,496.5C 22.1667,474.5 44.5,452.167 66.5,429.5 Z"/></g>
<g><path style="opacity:0.024" fill="#5b5b5b" d="M 76.5,439.5 C 78.1436,439.81 79.1436,440.81 79.5,442.5C 56.1667,465.167 33.1667,488.167 10.5,511.5C 8.83333,511.5 7.16667,511.5 5.5,511.5C 29.1667,487.5 52.8333,463.5 76.5,439.5 Z"/></g>
<g><path style="opacity:0.024" fill="#5b5b5b" d="M 511.5,445.5 C 511.5,447.167 511.5,448.833 511.5,450.5C 490.833,470.5 470.5,490.833 450.5,511.5C 448.833,511.5 447.167,511.5 445.5,511.5C 467.167,489.167 489.167,467.167 511.5,445.5 Z"/></g>
<g><path style="opacity:0.024" fill="#5b5b5b" d="M 87.5,449.5 C 89.0269,449.427 90.0269,450.094 90.5,451.5C 70.1667,471.167 50.1667,491.167 30.5,511.5C 28.8333,511.5 27.1667,511.5 25.5,511.5C 45.8333,490.5 66.5,469.833 87.5,449.5 Z"/></g>
<g><path style="opacity:0.024" fill="#5c5c5c" d="M 97.5,457.5 C 98.8333,458.167 99.8333,459.167 100.5,460.5C 83.8333,477.5 67.1667,494.5 50.5,511.5C 48.8333,511.5 47.1667,511.5 45.5,511.5C 62.4649,494.035 79.6316,476.701 97,459.5C 97.4643,458.906 97.631,458.239 97.5,457.5 Z"/></g>
<g><path style="opacity:0.024" fill="#5b5b5b" d="M 511.5,465.5 C 511.5,467.167 511.5,468.833 511.5,470.5C 497.5,483.833 483.833,497.5 470.5,511.5C 468.833,511.5 467.167,511.5 465.5,511.5C 480.5,495.833 495.833,480.5 511.5,465.5 Z"/></g>
<g><path style="opacity:0.024" fill="#5b5b5b" d="M 109.5,466.5 C 111.027,466.427 112.027,467.094 112.5,468.5C 98.5,482.833 84.5,497.167 70.5,511.5C 68.8333,511.5 67.1667,511.5 65.5,511.5C 80.1667,496.5 94.8333,481.5 109.5,466.5 Z"/></g>
<g><path style="opacity:0.024" fill="#5b5b5b" d="M 121.5,474.5 C 123.153,474.66 124.486,475.326 125.5,476.5C 113.5,487.833 101.833,499.5 90.5,511.5C 88.8333,511.5 87.1667,511.5 85.5,511.5C 97.5,499.167 109.5,486.833 121.5,474.5 Z"/></g>
<g><path style="opacity:0.024" fill="#5b5b5a" d="M 382.5,478.5 C 371.833,489.5 361.167,500.5 350.5,511.5C 348.833,511.5 347.167,511.5 345.5,511.5C 353.833,502.833 362.167,494.167 370.5,485.5C 371.167,485.5 371.5,485.167 371.5,484.5C 374.999,482.25 378.665,480.25 382.5,478.5 Z"/></g>
<g><path style="opacity:0.024" fill="#5b5b5b" d="M 134.5,481.5 C 135.71,481.932 136.71,482.599 137.5,483.5C 128.5,492.833 119.5,502.167 110.5,511.5C 108.833,511.5 107.167,511.5 105.5,511.5C 115.167,501.5 124.833,491.5 134.5,481.5 Z"/></g>
<g><path style="opacity:0.024" fill="#5b5b5b" d="M 511.5,485.5 C 511.5,487.167 511.5,488.833 511.5,490.5C 504.167,497.167 497.167,504.167 490.5,511.5C 488.833,511.5 487.167,511.5 485.5,511.5C 493.833,502.5 502.5,493.833 511.5,485.5 Z"/></g>
<g><path style="opacity:0.024" fill="#5a5a5a" d="M 147.5,488.5 C 149.553,488.402 151.22,489.069 152.5,490.5C 144.555,496.776 137.222,503.776 130.5,511.5C 128.833,511.5 127.167,511.5 125.5,511.5C 132.833,503.833 140.167,496.167 147.5,488.5 Z"/></g>
<g><path style="opacity:0.024" fill="#5b5b5b" d="M 161.5,494.5 C 163.553,494.402 165.22,495.069 166.5,496.5C 160.558,500.773 155.224,505.773 150.5,511.5C 148.833,511.5 147.167,511.5 145.5,511.5C 150.833,505.833 156.167,500.167 161.5,494.5 Z"/></g>
<g><path style="opacity:0.024" fill="#5a5a5a" d="M 344.5,496.5 C 339.833,501.5 335.167,506.5 330.5,511.5C 328.833,511.5 327.167,511.5 325.5,511.5C 329.167,507.5 332.833,503.5 336.5,499.5C 337.167,499.5 337.5,499.167 337.5,498.5C 339.701,497.434 342.035,496.767 344.5,496.5 Z"/></g>
<g><path style="opacity:0.024" fill="#5b5b5b" d="M 176.5,499.5 C 178.403,499.796 180.07,500.463 181.5,501.5C 177.229,504.101 173.563,507.434 170.5,511.5C 168.833,511.5 167.167,511.5 165.5,511.5C 169.167,507.5 172.833,503.5 176.5,499.5 Z"/></g>
<g><path style="opacity:0.024" fill="#565656" d="M 191.5,503.5 C 193.786,503.595 195.786,504.262 197.5,505.5C 194.573,506.757 192.239,508.757 190.5,511.5C 188.833,511.5 187.167,511.5 185.5,511.5C 187.909,509.098 189.909,506.431 191.5,503.5 Z"/></g>
<g><path style="opacity:0.024" fill="#5a5a5a" d="M 316.5,504.5 C 314.5,506.833 312.5,509.167 310.5,511.5C 308.833,511.5 307.167,511.5 305.5,511.5C 306.833,509.833 308.167,508.167 309.5,506.5C 311.772,505.681 314.106,505.015 316.5,504.5 Z"/></g>
<g><path style="opacity:0.024" fill="#5b5b5b" d="M 511.5,505.5 C 511.5,507.167 511.5,508.833 511.5,510.5C 510.833,510.5 510.5,510.833 510.5,511.5C 508.833,511.5 507.167,511.5 505.5,511.5C 507.167,509.167 509.167,507.167 511.5,505.5 Z"/></g>
<g><path style="opacity:0.024" fill="#575757" d="M 208.5,507.5 C 210.099,507.232 211.432,507.566 212.5,508.5C 211.833,509.5 211.167,510.5 210.5,511.5C 208.833,511.5 207.167,511.5 205.5,511.5C 206.5,510.167 207.5,508.833 208.5,507.5 Z"/></g>
<g><path style="opacity:0.024" fill="#575757" d="M 291.5,509.5 C 291.167,510.167 290.833,510.833 290.5,511.5C 288.833,511.5 287.167,511.5 285.5,511.5C 285.5,511.167 285.5,510.833 285.5,510.5C 287.379,509.659 289.379,509.325 291.5,509.5 Z"/></g>
<g><path style="opacity:0.024" fill="#555555" d="M 230.5,510.5 C 230.5,510.833 230.5,511.167 230.5,511.5C 228.833,511.5 227.167,511.5 225.5,511.5C 225.5,511.167 225.5,510.833 225.5,510.5C 227.167,509.167 228.833,509.167 230.5,510.5 Z"/></g>
</svg>
